<svg xmlns="http://www.w3.org/2000/svg" xmlns:xlink="http://www.w3.org/1999/xlink" viewBox="0 0 504 39">
    <title>Livewire Dropzone logo</title>
    <style>
        path { fill: #000 } @media (prefers-color-scheme:dark) { path { fill: #fff } }
    </style>
    <path d="M0.493164 38V1.5498H7.69531V31.6523H23.1006V38H0.493164ZM29.3262 7.89746V1.5498H51.0303V7.89746H43.7793V31.6523H51.0303V38H29.3262V31.6523H36.5771V7.89746H29.3262ZM70.293 31.9941L76.7139 1.5498H83.9648L75.2979 38H65.3125L56.6455 1.5498H63.8965L70.293 31.9941ZM112.188 38H89.4824V1.5498H112.188V7.89746H96.6846V15.7588H110.723V22.1064H96.6846V31.6523H112.188V38ZM115.508 1.5498H121.807L124.419 28.3076L127.568 10.998H133.55L137.212 28.3076L139.263 1.5498H145.61L141.411 38H134.697L130.547 18.8594L126.665 38H120L115.508 1.5498ZM149.834 7.89746V1.5498H171.538V7.89746H164.287V31.6523H171.538V38H149.834V31.6523H157.085V7.89746H149.834ZM195.464 20.7881C196.18 20.9346 196.799 21.2764 197.319 21.8135C197.856 22.3343 198.507 23.3597 199.272 24.8896L205.864 38H197.954L193.56 28.7959C193.429 28.5355 193.258 28.1774 193.047 27.7217C191.761 24.971 190.247 23.5957 188.506 23.5957H186.211V38H179.009V1.5498H189.409C194.097 1.5498 197.458 2.37988 199.492 4.04004C201.543 5.7002 202.568 8.40202 202.568 12.1455C202.568 14.652 201.958 16.6458 200.737 18.127C199.517 19.6081 197.759 20.4951 195.464 20.7881ZM186.211 7.60449V17.541H189.604C191.574 17.541 192.982 17.1585 193.828 16.3936C194.691 15.6123 195.122 14.3346 195.122 12.5605C195.122 10.7865 194.699 9.51693 193.853 8.75195C193.006 7.98698 191.59 7.60449 189.604 7.60449H186.211ZM232.695 38H209.99V1.5498H232.695V7.89746H217.192V15.7588H231.23V22.1064H217.192V31.6523H232.695V38Z" style="fill: #FB71A9 !important"/>
    <path d="M276.689 8.04395V31.5059H278.643C281.475 31.5059 283.493 30.6188 284.697 28.8447C285.902 27.0544 286.504 24.0189 286.504 19.7383C286.504 15.4902 285.902 12.4792 284.697 10.7051C283.493 8.93099 281.475 8.04395 278.643 8.04395H276.689ZM269.487 1.5498H277.202C283.159 1.5498 287.448 2.97396 290.068 5.82227C292.689 8.6543 293.999 13.293 293.999 19.7383C293.999 26.1999 292.689 30.863 290.068 33.7275C287.448 36.5758 283.159 38 277.202 38H269.487V1.5498ZM315.972 20.7881C316.688 20.9346 317.306 21.2764 317.827 21.8135C318.364 22.3343 319.015 23.3597 319.78 24.8896L326.372 38H318.462L314.067 28.7959C313.937 28.5355 313.766 28.1774 313.555 27.7217C312.269 24.971 310.755 23.5957 309.014 23.5957H306.719V38H299.517V1.5498H309.917C314.604 1.5498 317.965 2.37988 320 4.04004C322.051 5.7002 323.076 8.40202 323.076 12.1455C323.076 14.652 322.466 16.6458 321.245 18.127C320.024 19.6081 318.267 20.4951 315.972 20.7881ZM306.719 7.60449V17.541H310.112C312.082 17.541 313.49 17.1585 314.336 16.3936C315.199 15.6123 315.63 14.3346 315.63 12.5605C315.63 10.7865 315.207 9.51693 314.36 8.75195C313.514 7.98698 312.098 7.60449 310.112 7.60449H306.719ZM341.436 7.36035C339.596 7.36035 338.254 8.34505 337.407 10.3145C336.561 12.2676 336.138 15.4333 336.138 19.8115C336.138 24.1735 336.561 27.3392 337.407 29.3086C338.254 31.2617 339.596 32.2383 341.436 32.2383C343.291 32.2383 344.642 31.2617 345.488 29.3086C346.335 27.3392 346.758 24.1735 346.758 19.8115C346.758 15.4333 346.335 12.2676 345.488 10.3145C344.642 8.34505 343.291 7.36035 341.436 7.36035ZM328.643 19.8115C328.643 13.5778 329.717 8.86589 331.865 5.67578C334.03 2.48568 337.22 0.890625 341.436 0.890625C345.667 0.890625 348.857 2.48568 351.006 5.67578C353.171 8.86589 354.253 13.5778 354.253 19.8115C354.253 26.029 353.171 30.7327 351.006 33.9229C348.857 37.113 345.667 38.708 341.436 38.708C337.22 38.708 334.03 37.113 331.865 33.9229C329.717 30.7327 328.643 26.029 328.643 19.8115ZM367.681 7.60449V18.2979H370.635C372.995 18.2979 374.647 17.8991 375.591 17.1016C376.551 16.304 377.031 14.9206 377.031 12.9512C377.031 10.9818 376.551 9.59831 375.591 8.80078C374.647 8.00326 372.995 7.60449 370.635 7.60449H367.681ZM360.479 1.5498H370.366C375.396 1.5498 379.009 2.44499 381.206 4.23535C383.42 6.02572 384.526 8.93099 384.526 12.9512C384.526 16.9714 383.42 19.8766 381.206 21.667C379.009 23.4574 375.396 24.3525 370.366 24.3525H367.681V38H360.479V1.5498ZM389.995 1.5498H414.653V7.50684L397.759 31.6523H414.995V38H389.458V32.043L405.84 7.89746H389.995V1.5498ZM431.816 7.36035C429.977 7.36035 428.634 8.34505 427.788 10.3145C426.942 12.2676 426.519 15.4333 426.519 19.8115C426.519 24.1735 426.942 27.3392 427.788 29.3086C428.634 31.2617 429.977 32.2383 431.816 32.2383C433.672 32.2383 435.023 31.2617 435.869 29.3086C436.715 27.3392 437.139 24.1735 437.139 19.8115C437.139 15.4333 436.715 12.2676 435.869 10.3145C435.023 8.34505 433.672 7.36035 431.816 7.36035ZM419.023 19.8115C419.023 13.5778 420.098 8.86589 422.246 5.67578C424.411 2.48568 427.601 0.890625 431.816 0.890625C436.048 0.890625 439.238 2.48568 441.387 5.67578C443.551 8.86589 444.634 13.5778 444.634 19.8115C444.634 26.029 443.551 30.7327 441.387 33.9229C439.238 37.113 436.048 38.708 431.816 38.708C427.601 38.708 424.411 37.113 422.246 33.9229C420.098 30.7327 419.023 26.029 419.023 19.8115ZM449.81 1.5498H457.549L467.705 28.0391V1.5498H474.053V38H466.362L456.157 11.5107V38H449.81V1.5498ZM503.838 38H481.133V1.5498H503.838V7.89746H488.335V15.7588H502.373V22.1064H488.335V31.6523H503.838V38Z" fill="#000" />
</svg>